<svg xmlns="http://www.w3.org/2000/svg" viewBox="0 0 820 420" width="820" height="420" font-family="Helvetica,Arial,sans-serif">
<rect width="820" height="420" fill="#ffffff"/>
<text x="60" y="24" font-size="15" font-weight="bold" fill="#111">Median speed by time of day, Sofia surface network</text>
<text x="60" y="42" font-size="12" fill="#555">Typical weekday, 2026-09-14 to 2026-09-18 (5 weekdays). Shaded: the hours a timetable calls peak.</text>
<text x="60" y="382" font-size="11" fill="#555">Thin grey: fewer than 1,000 segments carry a median in that slot. Night runs on night routes, so it is a different network, not a faster one.</text>
<rect x="292.4" y="56" width="46.5" height="280" fill="#ffd9c7"/>
<rect x="571.3" y="56" width="62.0" height="280" fill="#ffd9c7"/>
<line x1="60" y1="336.0" x2="796" y2="336.0" stroke="#dcdcdc" stroke-width="1"/>
<text x="52" y="340.0" font-size="11" text-anchor="end" fill="#555">0</text>
<line x1="60" y1="289.3" x2="796" y2="289.3" stroke="#dcdcdc" stroke-width="1"/>
<text x="52" y="293.3" font-size="11" text-anchor="end" fill="#555">5</text>
<line x1="60" y1="242.7" x2="796" y2="242.7" stroke="#dcdcdc" stroke-width="1"/>
<text x="52" y="246.7" font-size="11" text-anchor="end" fill="#555">10</text>
<line x1="60" y1="196.0" x2="796" y2="196.0" stroke="#dcdcdc" stroke-width="1"/>
<text x="52" y="200.0" font-size="11" text-anchor="end" fill="#555">15</text>
<line x1="60" y1="149.3" x2="796" y2="149.3" stroke="#dcdcdc" stroke-width="1"/>
<text x="52" y="153.3" font-size="11" text-anchor="end" fill="#555">20</text>
<line x1="60" y1="102.7" x2="796" y2="102.7" stroke="#dcdcdc" stroke-width="1"/>
<text x="52" y="106.7" font-size="11" text-anchor="end" fill="#555">25</text>
<line x1="60" y1="56.0" x2="796" y2="56.0" stroke="#dcdcdc" stroke-width="1"/>
<text x="52" y="60.0" font-size="11" text-anchor="end" fill="#555">30</text>
<text x="60.0" y="354.0" font-size="11" text-anchor="middle" fill="#555">00:00</text>
<text x="153.0" y="354.0" font-size="11" text-anchor="middle" fill="#555">03:00</text>
<text x="245.9" y="354.0" font-size="11" text-anchor="middle" fill="#555">06:00</text>
<text x="338.9" y="354.0" font-size="11" text-anchor="middle" fill="#555">09:00</text>
<text x="431.9" y="354.0" font-size="11" text-anchor="middle" fill="#555">12:00</text>
<text x="524.8" y="354.0" font-size="11" text-anchor="middle" fill="#555">15:00</text>
<text x="617.8" y="354.0" font-size="11" text-anchor="middle" fill="#555">18:00</text>
<text x="710.8" y="354.0" font-size="11" text-anchor="middle" fill="#555">21:00</text>
<polyline points="60.0,137.7 67.7,133.4 75.5,128.9 83.2,133.3 91.0,153.3 98.7,120.3 106.5,112.9 114.2,126.2 122.0,147.2 129.7,100.4 137.5,105.7 145.2,114.4 153.0,127.3 160.7,104.0 168.5,101.7 176.2,126.6 184.0,119.3 191.7,120.6 199.5,124.3" fill="none" stroke="#9aa5b1" stroke-width="1.2" stroke-dasharray="4 3"/>
<polyline points="199.5,124.3 207.2,131.4 214.9,137.0 222.7,140.6 230.4,146.5 238.2,146.9 245.9,147.0 253.7,149.1 261.4,150.9 269.2,154.3 276.9,156.1 284.7,160.6 292.4,168.2 300.2,174.3 307.9,174.7 315.7,176.2 323.4,176.2 331.2,175.1 338.9,171.0 346.7,167.2 354.4,167.9 362.1,165.8 369.9,167.2 377.6,165.1 385.4,163.2 393.1,165.9 400.9,166.2 408.6,165.6 416.4,166.8 424.1,168.7 431.9,168.4 439.6,170.7 447.4,168.6 455.1,169.2 462.9,169.8 470.6,167.2 478.4,168.5 486.1,168.3 493.9,168.7 501.6,167.4 509.3,166.9 517.1,166.8 524.8,168.3 532.6,166.1 540.3,165.3 548.1,168.6 555.8,168.5 563.6,168.5 571.3,170.9 579.1,177.4 586.8,179.4 594.6,183.3 602.3,182.3 610.1,180.8 617.8,180.2 625.6,174.2 633.3,169.9 641.1,167.6 648.8,164.6 656.5,161.4 664.3,160.5 672.0,160.6 679.8,160.3 687.5,155.5 695.3,155.7 703.0,155.6 710.8,155.6 718.5,156.6 726.3,150.5 734.0,158.7 741.8,154.8 749.5,153.7 757.3,150.4 765.0,150.8 772.8,146.0 780.5,146.2 788.3,142.7 796.0,136.0" fill="none" stroke="#1a4f8a" stroke-width="2.5"/>
<text x="14" y="46" font-size="11" fill="#555">km/h</text>
<text x="60" y="400" font-size="11" fill="#555">The y axis starts at zero on purpose: rescaled to the data, a range of 1.8 km/h would look like a rush hour.</text>
</svg>
